<svg xmlns="http://www.w3.org/2000/svg" viewBox="0 0 48 48" fill="none" role="img" aria-label="ShuleOS">
  <defs>
    <linearGradient id="book" x1="8" y1="40" x2="40" y2="28">
      <stop offset="0%" stop-color="#047857"/>
      <stop offset="55%" stop-color="#0d9488"/>
      <stop offset="100%" stop-color="#2dd4bf"/>
    </linearGradient>
    <linearGradient id="page" x1="14" y1="32" x2="34" y2="38">
      <stop offset="0%" stop-color="#ffffff"/>
      <stop offset="100%" stop-color="#ccfbf1"/>
    </linearGradient>
    <linearGradient id="beam" x1="24" y1="36" x2="24" y2="14">
      <stop offset="0%" stop-color="#5eead4"/>
      <stop offset="45%" stop-color="#ffffff"/>
      <stop offset="100%" stop-color="#99f6e4"/>
    </linearGradient>
    <linearGradient id="star" x1="24" y1="3" x2="24" y2="16">
      <stop offset="0%" stop-color="#fef08a"/>
      <stop offset="50%" stop-color="#fbbf24"/>
      <stop offset="100%" stop-color="#d97706"/>
    </linearGradient>
  </defs>
  <path
    d="M24 39.5L7.5 33.2C5.8 32.4 5 30.5 5.8 28.8C6.6 27.1 8.5 26.3 10.2 27.1L24 32.8L37.8 27.1C39.5 26.3 41.4 27.1 42.2 28.8C43 30.5 42.2 32.4 40.5 33.2L24 39.5Z"
    fill="url(#book)"
  />
  <path
    d="M24 39.5L12.5 34.5C11.2 33.9 10.6 32.4 11.1 31.1C11.6 29.8 13.1 29.2 14.4 29.8L24 34.2L33.6 29.8C34.9 29.2 36.4 29.8 36.9 31.1C37.4 32.4 36.8 33.9 35.5 34.5L24 39.5Z"
    fill="url(#page)"
  />
  <path
    d="M24 34.2V39.5"
    stroke="#065f46"
    stroke-width="1.4"
    stroke-linecap="round"
  />
  <path
    d="M24 34.5V14"
    stroke="url(#beam)"
    stroke-width="3.8"
    stroke-linecap="round"
  />
  <path
    d="M24 30.5C20.8 26.8 20.8 22.2 24 18.5C27.2 22.2 27.2 26.8 24 30.5Z"
    fill="#ffffff"
  />
  <path
    d="M24 3.5L26.8 11.2L35 11.5L28.6 16.4L30.8 24.5L24 19.8L17.2 24.5L19.4 16.4L13 11.5L21.2 11.2L24 3.5Z"
    fill="url(#star)"
  />
  <path
    d="M24 3.5L26.8 11.2L35 11.5L28.6 16.4L30.8 24.5L24 19.8L17.2 24.5L19.4 16.4L13 11.5L21.2 11.2L24 3.5Z"
    stroke="#b45309"
    stroke-width="0.6"
    stroke-linejoin="round"
  />
  <circle cx="22.5" cy="8.5" r="1.1" fill="#fffbeb" fill-opacity="0.9"/>
</svg>
