<svg xmlns="http://www.w3.org/2000/svg" viewBox="0 0 40 40" fill="none" role="img" aria-label="ShuleOS">
  <rect width="40" height="40" rx="10" fill="#0D9488"/>
  <!-- Open book / horizon mark -->
  <path
    d="M20 10c-4.5 0-8 2.2-8 5v12c0 .8.6 1.4 1.4 1.4.4 0 .8-.2 1.1-.5L20 24.5l5.5 3.4c.3.3.7.5 1.1.5.8 0 1.4-.6 1.4-1.4V15c0-2.8-3.5-5-8-5z"
    fill="white"
    fill-opacity="0.95"
  />
  <path
    d="M20 13.5L14 17v8.5l6-3.7 6 3.7V17l-6-3.5z"
    fill="#0D9488"
  />
  <!-- Horizon lines -->
  <path
    d="M13 21.5h14"
    stroke="white"
    stroke-width="1.2"
    stroke-linecap="round"
    stroke-opacity="0.7"
  />
  <path
    d="M15 23.5h10"
    stroke="white"
    stroke-width="1"
    stroke-linecap="round"
    stroke-opacity="0.5"
  />
  <!-- Amber accent dot -->
  <circle cx="29" cy="11" r="3" fill="#F59E0B"/>
</svg>
