<?xml version='1.0' encoding='utf-8'?>
<svg xmlns="http://www.w3.org/2000/svg" width="10512" height="2200" viewBox="0 0 10512 2200"><defs><filter id="shadow" x="-20%" y="-20%" width="140%" height="140%"><feDropShadow dx="0" dy="2" stdDeviation="3" flood_color="#000000" flood_opacity="0.12" /></filter></defs><rect width="10512" height="2200" fill="#f8fafc" /><rect x="0" y="0" width="10512" height="96" fill="#0f172a" /><text x="5256.0" y="42" fill="#ffffff" font-family="Inter, Segoe UI, Arial, sans-serif" font-size="30" font-weight="700" text-anchor="middle">ShuleOS - Complete School Management System Tree</text><text x="5256.0" y="72" fill="#cbd5e1" font-family="Inter, Segoe UI, Arial, sans-serif" font-size="15" text-anchor="middle">Modules, portals, roles, and backend layers</text><g stroke="#94a3b8" stroke-width="2" fill="none"><path d="M 5256.0,229.0 L 5256.0,265.0 L 424.0,265.0 L 424.0,301.0" /><path d="M 5256.0,229.0 L 5256.0,265.0 L 1248.0,265.0 L 1248.0,301.0" /><path d="M 5256.0,229.0 L 5256.0,265.0 L 2102.0,265.0 L 2102.0,301.0" /><path d="M 5256.0,229.0 L 5256.0,265.0 L 3171.0,265.0 L 3171.0,301.0" /><path d="M 5256.0,229.0 L 5256.0,265.0 L 4258.5,265.0 L 4258.5,301.0" /><path d="M 5256.0,229.0 L 5256.0,265.0 L 4965.0,265.0 L 4965.0,301.0" /><path d="M 5256.0,229.0 L 5256.0,265.0 L 5672.0,265.0 L 5672.0,301.0" /><path d="M 5256.0,229.0 L 5256.0,265.0 L 6503.5,265.0 L 6503.5,301.0" /><path d="M 5256.0,229.0 L 5256.0,265.0 L 7259.5,265.0 L 7259.5,301.0" /><path d="M 5256.0,229.0 L 5256.0,265.0 L 7939.0,265.0 L 7939.0,301.0" /><path d="M 5256.0,229.0 L 5256.0,265.0 L 8458.0,265.0 L 8458.0,301.0" /><path d="M 5256.0,229.0 L 5256.0,265.0 L 8955.5,265.0 L 8955.5,301.0" /><path d="M 5256.0,229.0 L 5256.0,265.0 L 9809.0,265.0 L 9809.0,301.0" /><path d="M 505.5,359.0 L 505.5,395.0 L 120.0,395.0 L 120.0,431.0" /><path d="M 505.5,359.0 L 505.5,395.0 L 226.0,395.0 L 226.0,431.0" /><path d="M 505.5,359.0 L 505.5,395.0 L 332.0,395.0 L 332.0,431.0" /><path d="M 505.5,359.0 L 505.5,395.0 L 478.0,395.0 L 478.0,431.0" /><path d="M 505.5,359.0 L 505.5,395.0 L 617.0,395.0 L 617.0,431.0" /><path d="M 505.5,359.0 L 505.5,395.0 L 777.0,395.0 L 777.0,431.0" /><path d="M 1320.5,339.0 L 1320.5,375.0 L 909.0,375.0 L 909.0,411.0" /><path d="M 1320.5,339.0 L 1320.5,375.0 L 1015.0,375.0 L 1015.0,411.0" /><path d="M 1320.5,339.0 L 1320.5,375.0 L 1121.0,375.0 L 1121.0,411.0" /><path d="M 1320.5,339.0 L 1320.5,375.0 L 1227.0,375.0 L 1227.0,411.0" /><path d="M 1320.5,339.0 L 1320.5,375.0 L 1333.0,375.0 L 1333.0,411.0" /><path d="M 1320.5,339.0 L 1320.5,375.0 L 1493.0,375.0 L 1493.0,411.0" /><path d="M 1320.5,339.0 L 1320.5,375.0 L 1625.0,375.0 L 1625.0,411.0" /><path d="M 2161.5,339.0 L 2161.5,375.0 L 1750.0,375.0 L 1750.0,411.0" /><path d="M 2161.5,339.0 L 2161.5,375.0 L 1856.0,375.0 L 1856.0,411.0" /><path d="M 2161.5,339.0 L 2161.5,375.0 L 1962.0,375.0 L 1962.0,411.0" /><path d="M 2161.5,339.0 L 2161.5,375.0 L 2068.0,375.0 L 2068.0,411.0" /><path d="M 2161.5,339.0 L 2161.5,375.0 L 2174.0,375.0 L 2174.0,411.0" /><path d="M 2161.5,339.0 L 2161.5,375.0 L 2348.0,375.0 L 2348.0,411.0" /><path d="M 2161.5,339.0 L 2161.5,375.0 L 2459.0,375.0 L 2459.0,411.0" /><path d="M 3248.0,339.0 L 3248.0,375.0 L 2591.0,375.0 L 2591.0,411.0" /><path d="M 3248.0,339.0 L 3248.0,375.0 L 2697.0,375.0 L 2697.0,411.0" /><path d="M 3248.0,339.0 L 3248.0,375.0 L 2803.0,375.0 L 2803.0,411.0" /><path d="M 3248.0,339.0 L 3248.0,375.0 L 2914.0,375.0 L 2914.0,411.0" /><path d="M 3248.0,339.0 L 3248.0,375.0 L 3020.0,375.0 L 3020.0,411.0" /><path d="M 3248.0,339.0 L 3248.0,375.0 L 3126.0,375.0 L 3126.0,411.0" /><path d="M 3248.0,339.0 L 3248.0,375.0 L 3232.0,375.0 L 3232.0,411.0" /><path d="M 3248.0,339.0 L 3248.0,375.0 L 3338.0,375.0 L 3338.0,411.0" /><path d="M 3248.0,339.0 L 3248.0,375.0 L 3449.0,375.0 L 3449.0,411.0" /><path d="M 3248.0,339.0 L 3248.0,375.0 L 3560.0,375.0 L 3560.0,411.0" /><path d="M 3248.0,339.0 L 3248.0,375.0 L 3666.0,375.0 L 3666.0,411.0" /><path d="M 3248.0,339.0 L 3248.0,375.0 L 3791.0,375.0 L 3791.0,411.0" /><path d="M 4331.0,339.0 L 4331.0,375.0 L 3923.0,375.0 L 3923.0,411.0" /><path d="M 4331.0,339.0 L 4331.0,375.0 L 4055.0,375.0 L 4055.0,411.0" /><path d="M 4331.0,339.0 L 4331.0,375.0 L 4161.0,375.0 L 4161.0,411.0" /><path d="M 4331.0,339.0 L 4331.0,375.0 L 4267.0,375.0 L 4267.0,411.0" /><path d="M 4331.0,339.0 L 4331.0,375.0 L 4373.0,375.0 L 4373.0,411.0" /><path d="M 4331.0,339.0 L 4331.0,375.0 L 4479.0,375.0 L 4479.0,411.0" /><path d="M 4331.0,339.0 L 4331.0,375.0 L 4625.0,375.0 L 4625.0,411.0" /><path d="M 5050.5,339.0 L 5050.5,375.0 L 4757.0,375.0 L 4757.0,411.0" /><path d="M 5050.5,339.0 L 5050.5,375.0 L 4863.0,375.0 L 4863.0,411.0" /><path d="M 5050.5,339.0 L 5050.5,375.0 L 4969.0,375.0 L 4969.0,411.0" /><path d="M 5050.5,339.0 L 5050.5,375.0 L 5075.0,375.0 L 5075.0,411.0" /><path d="M 5050.5,339.0 L 5050.5,375.0 L 5181.0,375.0 L 5181.0,411.0" /><path d="M 5744.5,339.0 L 5744.5,375.0 L 5362.0,375.0 L 5362.0,411.0" /><path d="M 5744.5,339.0 L 5744.5,375.0 L 5473.0,375.0 L 5473.0,411.0" /><path d="M 5744.5,339.0 L 5744.5,375.0 L 5584.0,375.0 L 5584.0,411.0" /><path d="M 5744.5,339.0 L 5744.5,375.0 L 5690.0,375.0 L 5690.0,411.0" /><path d="M 5744.5,339.0 L 5744.5,375.0 L 5808.0,375.0 L 5808.0,411.0" /><path d="M 5744.5,339.0 L 5744.5,375.0 L 5914.0,375.0 L 5914.0,411.0" /><path d="M 5744.5,339.0 L 5744.5,375.0 L 6039.0,375.0 L 6039.0,411.0" /><path d="M 6572.0,339.0 L 6572.0,375.0 L 6145.0,375.0 L 6145.0,411.0" /><path d="M 6572.0,339.0 L 6572.0,375.0 L 6251.0,375.0 L 6251.0,411.0" /><path d="M 6572.0,339.0 L 6572.0,375.0 L 6357.0,375.0 L 6357.0,411.0" /><path d="M 6572.0,339.0 L 6572.0,375.0 L 6463.0,375.0 L 6463.0,411.0" /><path d="M 6572.0,339.0 L 6572.0,375.0 L 6581.0,375.0 L 6581.0,411.0" /><path d="M 6572.0,339.0 L 6572.0,375.0 L 6687.0,375.0 L 6687.0,411.0" /><path d="M 6572.0,339.0 L 6572.0,375.0 L 6793.0,375.0 L 6793.0,411.0" /><path d="M 6572.0,339.0 L 6572.0,375.0 L 6911.0,375.0 L 6911.0,411.0" /><path d="M 7332.0,339.0 L 7332.0,375.0 L 7017.0,375.0 L 7017.0,411.0" /><path d="M 7332.0,339.0 L 7332.0,375.0 L 7123.0,375.0 L 7123.0,411.0" /><path d="M 7332.0,339.0 L 7332.0,375.0 L 7241.0,375.0 L 7241.0,411.0" /><path d="M 7332.0,339.0 L 7332.0,375.0 L 7347.0,375.0 L 7347.0,411.0" /><path d="M 7332.0,339.0 L 7332.0,375.0 L 7453.0,375.0 L 7453.0,411.0" /><path d="M 7332.0,339.0 L 7332.0,375.0 L 7559.0,375.0 L 7559.0,411.0" /><path d="M 7990.0,339.0 L 7990.0,375.0 L 7665.0,375.0 L 7665.0,411.0" /><path d="M 7990.0,339.0 L 7990.0,375.0 L 7832.0,375.0 L 7832.0,411.0" /><path d="M 7990.0,339.0 L 7990.0,375.0 L 8013.0,375.0 L 8013.0,411.0" /><path d="M 7990.0,339.0 L 7990.0,375.0 L 8173.0,375.0 L 8173.0,411.0" /><path d="M 8526.5,339.0 L 8526.5,375.0 L 8333.0,375.0 L 8333.0,411.0" /><path d="M 8526.5,339.0 L 8526.5,375.0 L 8439.0,375.0 L 8439.0,411.0" /><path d="M 8526.5,339.0 L 8526.5,375.0 L 8571.0,375.0 L 8571.0,411.0" /><path d="M 9045.5,339.0 L 9045.5,375.0 L 8738.0,375.0 L 8738.0,411.0" /><path d="M 9045.5,339.0 L 9045.5,375.0 L 8870.0,375.0 L 8870.0,411.0" /><path d="M 9045.5,339.0 L 9045.5,375.0 L 9037.0,375.0 L 9037.0,411.0" /><path d="M 9045.5,339.0 L 9045.5,375.0 L 9204.0,375.0 L 9204.0,411.0" /><path d="M 9881.5,339.0 L 9881.5,375.0 L 9371.0,375.0 L 9371.0,411.0" /><path d="M 9881.5,339.0 L 9881.5,375.0 L 9510.0,375.0 L 9510.0,411.0" /><path d="M 9881.5,339.0 L 9881.5,375.0 L 9621.0,375.0 L 9621.0,411.0" /><path d="M 9881.5,339.0 L 9881.5,375.0 L 9760.0,375.0 L 9760.0,411.0" /><path d="M 9881.5,339.0 L 9881.5,375.0 L 9892.0,375.0 L 9892.0,411.0" /><path d="M 9881.5,339.0 L 9881.5,375.0 L 10066.0,375.0 L 10066.0,411.0" /><path d="M 9881.5,339.0 L 9881.5,375.0 L 10172.0,375.0 L 10172.0,411.0" /><path d="M 9881.5,339.0 L 9881.5,375.0 L 10278.0,375.0 L 10278.0,411.0" /></g><rect x="5166.0" y="130.0" width="180.0" height="99.0" rx="14" ry="14" fill="#0f172a" stroke="#0f172a" stroke-width="2" filter="url(#shadow)" /><text x="5256.0" y="146.0" fill="#ffffff" font-family="Inter, Segoe UI, Arial, sans-serif" font-size="20" font-weight="700" text-anchor="middle">ShuleOS</text><text x="5256.0" y="173.0" fill="#ffffff" font-family="Inter, Segoe UI, Arial, sans-serif" font-size="20" font-weight="700" text-anchor="middle">School Management System</text><rect x="424.0" y="301.0" width="163.0" height="58.0" rx="14" ry="14" fill="#eef2ff" stroke="#6366f1" stroke-width="2" filter="url(#shadow)" /><text x="505.5" y="317.0" fill="#312e81" font-family="Inter, Segoe UI, Arial, sans-serif" font-size="15" font-weight="700" text-anchor="middle">Authentication &amp; Access</text><rect x="120.0" y="431.0" width="88.0" height="34.0" rx="8" ry="8" fill="#ffffff" stroke="#cbd5e1" stroke-width="1" filter="url(#shadow)" /><text x="164.0" y="447.0" fill="#1e293b" font-family="Inter, Segoe UI, Arial, sans-serif" font-size="12" font-weight="500" text-anchor="middle">Login</text><rect x="226.0" y="431.0" width="88.0" height="34.0" rx="8" ry="8" fill="#ffffff" stroke="#cbd5e1" stroke-width="1" filter="url(#shadow)" /><text x="270.0" y="447.0" fill="#1e293b" font-family="Inter, Segoe UI, Arial, sans-serif" font-size="12" font-weight="500" text-anchor="middle">Register</text><rect x="332.0" y="431.0" width="128.0" height="34.0" rx="8" ry="8" fill="#ffffff" stroke="#cbd5e1" stroke-width="1" filter="url(#shadow)" /><text x="396.0" y="447.0" fill="#1e293b" font-family="Inter, Segoe UI, Arial, sans-serif" font-size="12" font-weight="500" text-anchor="middle">Forgot Password</text><rect x="478.0" y="431.0" width="121.0" height="34.0" rx="8" ry="8" fill="#ffffff" stroke="#cbd5e1" stroke-width="1" filter="url(#shadow)" /><text x="538.5" y="447.0" fill="#1e293b" font-family="Inter, Segoe UI, Arial, sans-serif" font-size="12" font-weight="500" text-anchor="middle">Reset Password</text><rect x="617.0" y="431.0" width="142.0" height="34.0" rx="8" ry="8" fill="#ffffff" stroke="#cbd5e1" stroke-width="1" filter="url(#shadow)" /><text x="688.0" y="447.0" fill="#1e293b" font-family="Inter, Segoe UI, Arial, sans-serif" font-size="12" font-weight="500" text-anchor="middle">Role-Based Access</text><rect x="777.0" y="431.0" width="114.0" height="34.0" rx="8" ry="8" fill="#ffffff" stroke="#cbd5e1" stroke-width="1" filter="url(#shadow)" /><text x="834.0" y="447.0" fill="#1e293b" font-family="Inter, Segoe UI, Arial, sans-serif" font-size="12" font-weight="500" text-anchor="middle">Auth Callback</text><rect x="1248.0" y="301.0" width="145.0" height="38.0" rx="14" ry="14" fill="#fffbeb" stroke="#f59e0b" stroke-width="2" filter="url(#shadow)" /><text x="1320.5" y="317.0" fill="#92400e" font-family="Inter, Segoe UI, Arial, sans-serif" font-size="15" font-weight="700" text-anchor="middle">Public Website</text><rect x="909.0" y="411.0" width="88.0" height="34.0" rx="8" ry="8" fill="#ffffff" stroke="#cbd5e1" stroke-width="1" filter="url(#shadow)" /><text x="953.0" y="427.0" fill="#1e293b" font-family="Inter, Segoe UI, Arial, sans-serif" font-size="12" font-weight="500" text-anchor="middle">Homepage</text><rect x="1015.0" y="411.0" width="88.0" height="34.0" rx="8" ry="8" fill="#ffffff" stroke="#cbd5e1" stroke-width="1" filter="url(#shadow)" /><text x="1059.0" y="427.0" fill="#1e293b" font-family="Inter, Segoe UI, Arial, sans-serif" font-size="12" font-weight="500" text-anchor="middle">Features</text><rect x="1121.0" y="411.0" width="88.0" height="34.0" rx="8" ry="8" fill="#ffffff" stroke="#cbd5e1" stroke-width="1" filter="url(#shadow)" /><text x="1165.0" y="427.0" fill="#1e293b" font-family="Inter, Segoe UI, Arial, sans-serif" font-size="12" font-weight="500" text-anchor="middle">Modules</text><rect x="1227.0" y="411.0" width="88.0" height="34.0" rx="8" ry="8" fill="#ffffff" stroke="#cbd5e1" stroke-width="1" filter="url(#shadow)" /><text x="1271.0" y="427.0" fill="#1e293b" font-family="Inter, Segoe UI, Arial, sans-serif" font-size="12" font-weight="500" text-anchor="middle">Contact</text><rect x="1333.0" y="411.0" width="142.0" height="34.0" rx="8" ry="8" fill="#ffffff" stroke="#cbd5e1" stroke-width="1" filter="url(#shadow)" /><text x="1404.0" y="427.0" fill="#1e293b" font-family="Inter, Segoe UI, Arial, sans-serif" font-size="12" font-weight="500" text-anchor="middle">Online Admissions</text><rect x="1493.0" y="411.0" width="114.0" height="34.0" rx="8" ry="8" fill="#ffffff" stroke="#cbd5e1" stroke-width="1" filter="url(#shadow)" /><text x="1550.0" y="427.0" fill="#1e293b" font-family="Inter, Segoe UI, Arial, sans-serif" font-size="12" font-weight="500" text-anchor="middle">Public Events</text><rect x="1625.0" y="411.0" width="107.0" height="34.0" rx="8" ry="8" fill="#ffffff" stroke="#cbd5e1" stroke-width="1" filter="url(#shadow)" /><text x="1678.5" y="427.0" fill="#1e293b" font-family="Inter, Segoe UI, Arial, sans-serif" font-size="12" font-weight="500" text-anchor="middle">School Pages</text><rect x="2102.0" y="301.0" width="119.0" height="38.0" rx="14" ry="14" fill="#fef2f2" stroke="#ef4444" stroke-width="2" filter="url(#shadow)" /><text x="2161.5" y="317.0" fill="#991b1b" font-family="Inter, Segoe UI, Arial, sans-serif" font-size="15" font-weight="700" text-anchor="middle">Super Admin</text><rect x="1750.0" y="411.0" width="88.0" height="34.0" rx="8" ry="8" fill="#ffffff" stroke="#cbd5e1" stroke-width="1" filter="url(#shadow)" /><text x="1794.0" y="427.0" fill="#1e293b" font-family="Inter, Segoe UI, Arial, sans-serif" font-size="12" font-weight="500" text-anchor="middle">Dashboard</text><rect x="1856.0" y="411.0" width="88.0" height="34.0" rx="8" ry="8" fill="#ffffff" stroke="#cbd5e1" stroke-width="1" filter="url(#shadow)" /><text x="1900.0" y="427.0" fill="#1e293b" font-family="Inter, Segoe UI, Arial, sans-serif" font-size="12" font-weight="500" text-anchor="middle">Schools</text><rect x="1962.0" y="411.0" width="88.0" height="34.0" rx="8" ry="8" fill="#ffffff" stroke="#cbd5e1" stroke-width="1" filter="url(#shadow)" /><text x="2006.0" y="427.0" fill="#1e293b" font-family="Inter, Segoe UI, Arial, sans-serif" font-size="12" font-weight="500" text-anchor="middle">Branches</text><rect x="2068.0" y="411.0" width="88.0" height="34.0" rx="8" ry="8" fill="#ffffff" stroke="#cbd5e1" stroke-width="1" filter="url(#shadow)" /><text x="2112.0" y="427.0" fill="#1e293b" font-family="Inter, Segoe UI, Arial, sans-serif" font-size="12" font-weight="500" text-anchor="middle">Users</text><rect x="2174.0" y="411.0" width="156.0" height="34.0" rx="8" ry="8" fill="#ffffff" stroke="#cbd5e1" stroke-width="1" filter="url(#shadow)" /><text x="2252.0" y="427.0" fill="#1e293b" font-family="Inter, Segoe UI, Arial, sans-serif" font-size="12" font-weight="500" text-anchor="middle">Roles &amp; Permissions</text><rect x="2348.0" y="411.0" width="93.0" height="34.0" rx="8" ry="8" fill="#ffffff" stroke="#cbd5e1" stroke-width="1" filter="url(#shadow)" /><text x="2394.5" y="427.0" fill="#1e293b" font-family="Inter, Segoe UI, Arial, sans-serif" font-size="12" font-weight="500" text-anchor="middle">Audit Logs</text><rect x="2459.0" y="411.0" width="114.0" height="34.0" rx="8" ry="8" fill="#ffffff" stroke="#cbd5e1" stroke-width="1" filter="url(#shadow)" /><text x="2516.0" y="427.0" fill="#1e293b" font-family="Inter, Segoe UI, Arial, sans-serif" font-size="12" font-weight="500" text-anchor="middle">Feature Flags</text><rect x="3171.0" y="301.0" width="154.0" height="38.0" rx="14" ry="14" fill="#eff6ff" stroke="#3b82f6" stroke-width="2" filter="url(#shadow)" /><text x="3248.0" y="317.0" fill="#1e40af" font-family="Inter, Segoe UI, Arial, sans-serif" font-size="15" font-weight="700" text-anchor="middle">Academic Module</text><rect x="2591.0" y="411.0" width="88.0" height="34.0" rx="8" ry="8" fill="#ffffff" stroke="#cbd5e1" stroke-width="1" filter="url(#shadow)" /><text x="2635.0" y="427.0" fill="#1e293b" font-family="Inter, Segoe UI, Arial, sans-serif" font-size="12" font-weight="500" text-anchor="middle">Students</text><rect x="2697.0" y="411.0" width="88.0" height="34.0" rx="8" ry="8" fill="#ffffff" stroke="#cbd5e1" stroke-width="1" filter="url(#shadow)" /><text x="2741.0" y="427.0" fill="#1e293b" font-family="Inter, Segoe UI, Arial, sans-serif" font-size="12" font-weight="500" text-anchor="middle">Guardians</text><rect x="2803.0" y="411.0" width="93.0" height="34.0" rx="8" ry="8" fill="#ffffff" stroke="#cbd5e1" stroke-width="1" filter="url(#shadow)" /><text x="2849.5" y="427.0" fill="#1e293b" font-family="Inter, Segoe UI, Arial, sans-serif" font-size="12" font-weight="500" text-anchor="middle">Admissions</text><rect x="2914.0" y="411.0" width="88.0" height="34.0" rx="8" ry="8" fill="#ffffff" stroke="#cbd5e1" stroke-width="1" filter="url(#shadow)" /><text x="2958.0" y="427.0" fill="#1e293b" font-family="Inter, Segoe UI, Arial, sans-serif" font-size="12" font-weight="500" text-anchor="middle">Classes</text><rect x="3020.0" y="411.0" width="88.0" height="34.0" rx="8" ry="8" fill="#ffffff" stroke="#cbd5e1" stroke-width="1" filter="url(#shadow)" /><text x="3064.0" y="427.0" fill="#1e293b" font-family="Inter, Segoe UI, Arial, sans-serif" font-size="12" font-weight="500" text-anchor="middle">Sections</text><rect x="3126.0" y="411.0" width="88.0" height="34.0" rx="8" ry="8" fill="#ffffff" stroke="#cbd5e1" stroke-width="1" filter="url(#shadow)" /><text x="3170.0" y="427.0" fill="#1e293b" font-family="Inter, Segoe UI, Arial, sans-serif" font-size="12" font-weight="500" text-anchor="middle">Subjects</text><rect x="3232.0" y="411.0" width="88.0" height="34.0" rx="8" ry="8" fill="#ffffff" stroke="#cbd5e1" stroke-width="1" filter="url(#shadow)" /><text x="3276.0" y="427.0" fill="#1e293b" font-family="Inter, Segoe UI, Arial, sans-serif" font-size="12" font-weight="500" text-anchor="middle">Timetable</text><rect x="3338.0" y="411.0" width="93.0" height="34.0" rx="8" ry="8" fill="#ffffff" stroke="#cbd5e1" stroke-width="1" filter="url(#shadow)" /><text x="3384.5" y="427.0" fill="#1e293b" font-family="Inter, Segoe UI, Arial, sans-serif" font-size="12" font-weight="500" text-anchor="middle">Curriculum</text><rect x="3449.0" y="411.0" width="93.0" height="34.0" rx="8" ry="8" fill="#ffffff" stroke="#cbd5e1" stroke-width="1" filter="url(#shadow)" /><text x="3495.5" y="427.0" fill="#1e293b" font-family="Inter, Segoe UI, Arial, sans-serif" font-size="12" font-weight="500" text-anchor="middle">Attendance</text><rect x="3560.0" y="411.0" width="88.0" height="34.0" rx="8" ry="8" fill="#ffffff" stroke="#cbd5e1" stroke-width="1" filter="url(#shadow)" /><text x="3604.0" y="427.0" fill="#1e293b" font-family="Inter, Segoe UI, Arial, sans-serif" font-size="12" font-weight="500" text-anchor="middle">Grades</text><rect x="3666.0" y="411.0" width="107.0" height="34.0" rx="8" ry="8" fill="#ffffff" stroke="#cbd5e1" stroke-width="1" filter="url(#shadow)" /><text x="3719.5" y="427.0" fill="#1e293b" font-family="Inter, Segoe UI, Arial, sans-serif" font-size="12" font-weight="500" text-anchor="middle">Report Cards</text><rect x="3791.0" y="411.0" width="114.0" height="34.0" rx="8" ry="8" fill="#ffffff" stroke="#cbd5e1" stroke-width="1" filter="url(#shadow)" /><text x="3848.0" y="427.0" fill="#1e293b" font-family="Inter, Segoe UI, Arial, sans-serif" font-size="12" font-weight="500" text-anchor="middle">Academic Team</text><rect x="4258.5" y="301.0" width="145.0" height="38.0" rx="14" ry="14" fill="#ecfdf5" stroke="#10b981" stroke-width="2" filter="url(#shadow)" /><text x="4331.0" y="317.0" fill="#065f46" font-family="Inter, Segoe UI, Arial, sans-serif" font-size="15" font-weight="700" text-anchor="middle">Finance Module</text><rect x="3923.0" y="411.0" width="114.0" height="34.0" rx="8" ry="8" fill="#ffffff" stroke="#cbd5e1" stroke-width="1" filter="url(#shadow)" /><text x="3980.0" y="427.0" fill="#1e293b" font-family="Inter, Segoe UI, Arial, sans-serif" font-size="12" font-weight="500" text-anchor="middle">Fee Structure</text><rect x="4055.0" y="411.0" width="88.0" height="34.0" rx="8" ry="8" fill="#ffffff" stroke="#cbd5e1" stroke-width="1" filter="url(#shadow)" /><text x="4099.0" y="427.0" fill="#1e293b" font-family="Inter, Segoe UI, Arial, sans-serif" font-size="12" font-weight="500" text-anchor="middle">Invoices</text><rect x="4161.0" y="411.0" width="88.0" height="34.0" rx="8" ry="8" fill="#ffffff" stroke="#cbd5e1" stroke-width="1" filter="url(#shadow)" /><text x="4205.0" y="427.0" fill="#1e293b" font-family="Inter, Segoe UI, Arial, sans-serif" font-size="12" font-weight="500" text-anchor="middle">Payments</text><rect x="4267.0" y="411.0" width="88.0" height="34.0" rx="8" ry="8" fill="#ffffff" stroke="#cbd5e1" stroke-width="1" filter="url(#shadow)" /><text x="4311.0" y="427.0" fill="#1e293b" font-family="Inter, Segoe UI, Arial, sans-serif" font-size="12" font-weight="500" text-anchor="middle">Payroll</text><rect x="4373.0" y="411.0" width="88.0" height="34.0" rx="8" ry="8" fill="#ffffff" stroke="#cbd5e1" stroke-width="1" filter="url(#shadow)" /><text x="4417.0" y="427.0" fill="#1e293b" font-family="Inter, Segoe UI, Arial, sans-serif" font-size="12" font-weight="500" text-anchor="middle">Expenses</text><rect x="4479.0" y="411.0" width="128.0" height="34.0" rx="8" ry="8" fill="#ffffff" stroke="#cbd5e1" stroke-width="1" filter="url(#shadow)" /><text x="4543.0" y="427.0" fill="#1e293b" font-family="Inter, Segoe UI, Arial, sans-serif" font-size="12" font-weight="500" text-anchor="middle">Finance Reports</text><rect x="4625.0" y="411.0" width="114.0" height="34.0" rx="8" ry="8" fill="#ffffff" stroke="#cbd5e1" stroke-width="1" filter="url(#shadow)" /><text x="4682.0" y="427.0" fill="#1e293b" font-family="Inter, Segoe UI, Arial, sans-serif" font-size="12" font-weight="500" text-anchor="middle">Fee Reminders</text><rect x="4965.0" y="301.0" width="171.0" height="38.0" rx="14" ry="14" fill="#f8fafc" stroke="#64748b" stroke-width="2" filter="url(#shadow)" /><text x="5050.5" y="317.0" fill="#334155" font-family="Inter, Segoe UI, Arial, sans-serif" font-size="15" font-weight="700" text-anchor="middle">Operations Module</text><rect x="4757.0" y="411.0" width="88.0" height="34.0" rx="8" ry="8" fill="#ffffff" stroke="#cbd5e1" stroke-width="1" filter="url(#shadow)" /><text x="4801.0" y="427.0" fill="#1e293b" font-family="Inter, Segoe UI, Arial, sans-serif" font-size="12" font-weight="500" text-anchor="middle">Library</text><rect x="4863.0" y="411.0" width="88.0" height="34.0" rx="8" ry="8" fill="#ffffff" stroke="#cbd5e1" stroke-width="1" filter="url(#shadow)" /><text x="4907.0" y="427.0" fill="#1e293b" font-family="Inter, Segoe UI, Arial, sans-serif" font-size="12" font-weight="500" text-anchor="middle">Transport</text><rect x="4969.0" y="411.0" width="88.0" height="34.0" rx="8" ry="8" fill="#ffffff" stroke="#cbd5e1" stroke-width="1" filter="url(#shadow)" /><text x="5013.0" y="427.0" fill="#1e293b" font-family="Inter, Segoe UI, Arial, sans-serif" font-size="12" font-weight="500" text-anchor="middle">Events</text><rect x="5075.0" y="411.0" width="88.0" height="34.0" rx="8" ry="8" fill="#ffffff" stroke="#cbd5e1" stroke-width="1" filter="url(#shadow)" /><text x="5119.0" y="427.0" fill="#1e293b" font-family="Inter, Segoe UI, Arial, sans-serif" font-size="12" font-weight="500" text-anchor="middle">Staff</text><rect x="5181.0" y="411.0" width="163.0" height="34.0" rx="8" ry="8" fill="#ffffff" stroke="#cbd5e1" stroke-width="1" filter="url(#shadow)" /><text x="5262.5" y="427.0" fill="#1e293b" font-family="Inter, Segoe UI, Arial, sans-serif" font-size="12" font-weight="500" text-anchor="middle">Operations Dashboard</text><rect x="5672.0" y="301.0" width="145.0" height="38.0" rx="14" ry="14" fill="#f5f3ff" stroke="#8b5cf6" stroke-width="2" filter="url(#shadow)" /><text x="5744.5" y="317.0" fill="#5b21b6" font-family="Inter, Segoe UI, Arial, sans-serif" font-size="15" font-weight="700" text-anchor="middle">Teacher Portal</text><rect x="5362.0" y="411.0" width="93.0" height="34.0" rx="8" ry="8" fill="#ffffff" stroke="#cbd5e1" stroke-width="1" filter="url(#shadow)" /><text x="5408.5" y="427.0" fill="#1e293b" font-family="Inter, Segoe UI, Arial, sans-serif" font-size="12" font-weight="500" text-anchor="middle">My Classes</text><rect x="5473.0" y="411.0" width="93.0" height="34.0" rx="8" ry="8" fill="#ffffff" stroke="#cbd5e1" stroke-width="1" filter="url(#shadow)" /><text x="5519.5" y="427.0" fill="#1e293b" font-family="Inter, Segoe UI, Arial, sans-serif" font-size="12" font-weight="500" text-anchor="middle">Attendance</text><rect x="5584.0" y="411.0" width="88.0" height="34.0" rx="8" ry="8" fill="#ffffff" stroke="#cbd5e1" stroke-width="1" filter="url(#shadow)" /><text x="5628.0" y="427.0" fill="#1e293b" font-family="Inter, Segoe UI, Arial, sans-serif" font-size="12" font-weight="500" text-anchor="middle">Gradebook</text><rect x="5690.0" y="411.0" width="100.0" height="34.0" rx="8" ry="8" fill="#ffffff" stroke="#cbd5e1" stroke-width="1" filter="url(#shadow)" /><text x="5740.0" y="427.0" fill="#1e293b" font-family="Inter, Segoe UI, Arial, sans-serif" font-size="12" font-weight="500" text-anchor="middle">Assignments</text><rect x="5808.0" y="411.0" width="88.0" height="34.0" rx="8" ry="8" fill="#ffffff" stroke="#cbd5e1" stroke-width="1" filter="url(#shadow)" /><text x="5852.0" y="427.0" fill="#1e293b" font-family="Inter, Segoe UI, Arial, sans-serif" font-size="12" font-weight="500" text-anchor="middle">Exams</text><rect x="5914.0" y="411.0" width="107.0" height="34.0" rx="8" ry="8" fill="#ffffff" stroke="#cbd5e1" stroke-width="1" filter="url(#shadow)" /><text x="5967.5" y="427.0" fill="#1e293b" font-family="Inter, Segoe UI, Arial, sans-serif" font-size="12" font-weight="500" text-anchor="middle">Report Cards</text><rect x="6039.0" y="411.0" width="88.0" height="34.0" rx="8" ry="8" fill="#ffffff" stroke="#cbd5e1" stroke-width="1" filter="url(#shadow)" /><text x="6083.0" y="427.0" fill="#1e293b" font-family="Inter, Segoe UI, Arial, sans-serif" font-size="12" font-weight="500" text-anchor="middle">Messages</text><rect x="6503.5" y="301.0" width="137.0" height="38.0" rx="14" ry="14" fill="#fdf2f8" stroke="#ec4899" stroke-width="2" filter="url(#shadow)" /><text x="6572.0" y="317.0" fill="#9d174d" font-family="Inter, Segoe UI, Arial, sans-serif" font-size="15" font-weight="700" text-anchor="middle">Parent Portal</text><rect x="6145.0" y="411.0" width="88.0" height="34.0" rx="8" ry="8" fill="#ffffff" stroke="#cbd5e1" stroke-width="1" filter="url(#shadow)" /><text x="6189.0" y="427.0" fill="#1e293b" font-family="Inter, Segoe UI, Arial, sans-serif" font-size="12" font-weight="500" text-anchor="middle">Fees</text><rect x="6251.0" y="411.0" width="88.0" height="34.0" rx="8" ry="8" fill="#ffffff" stroke="#cbd5e1" stroke-width="1" filter="url(#shadow)" /><text x="6295.0" y="427.0" fill="#1e293b" font-family="Inter, Segoe UI, Arial, sans-serif" font-size="12" font-weight="500" text-anchor="middle">Payments</text><rect x="6357.0" y="411.0" width="88.0" height="34.0" rx="8" ry="8" fill="#ffffff" stroke="#cbd5e1" stroke-width="1" filter="url(#shadow)" /><text x="6401.0" y="427.0" fill="#1e293b" font-family="Inter, Segoe UI, Arial, sans-serif" font-size="12" font-weight="500" text-anchor="middle">Timetable</text><rect x="6463.0" y="411.0" width="100.0" height="34.0" rx="8" ry="8" fill="#ffffff" stroke="#cbd5e1" stroke-width="1" filter="url(#shadow)" /><text x="6513.0" y="427.0" fill="#1e293b" font-family="Inter, Segoe UI, Arial, sans-serif" font-size="12" font-weight="500" text-anchor="middle">Assignments</text><rect x="6581.0" y="411.0" width="88.0" height="34.0" rx="8" ry="8" fill="#ffffff" stroke="#cbd5e1" stroke-width="1" filter="url(#shadow)" /><text x="6625.0" y="427.0" fill="#1e293b" font-family="Inter, Segoe UI, Arial, sans-serif" font-size="12" font-weight="500" text-anchor="middle">Events</text><rect x="6687.0" y="411.0" width="88.0" height="34.0" rx="8" ry="8" fill="#ffffff" stroke="#cbd5e1" stroke-width="1" filter="url(#shadow)" /><text x="6731.0" y="427.0" fill="#1e293b" font-family="Inter, Segoe UI, Arial, sans-serif" font-size="12" font-weight="500" text-anchor="middle">Transport</text><rect x="6793.0" y="411.0" width="100.0" height="34.0" rx="8" ry="8" fill="#ffffff" stroke="#cbd5e1" stroke-width="1" filter="url(#shadow)" /><text x="6843.0" y="427.0" fill="#1e293b" font-family="Inter, Segoe UI, Arial, sans-serif" font-size="12" font-weight="500" text-anchor="middle">Performance</text><rect x="6911.0" y="411.0" width="88.0" height="34.0" rx="8" ry="8" fill="#ffffff" stroke="#cbd5e1" stroke-width="1" filter="url(#shadow)" /><text x="6955.0" y="427.0" fill="#1e293b" font-family="Inter, Segoe UI, Arial, sans-serif" font-size="12" font-weight="500" text-anchor="middle">Messages</text><rect x="7259.5" y="301.0" width="145.0" height="38.0" rx="14" ry="14" fill="#f0f9ff" stroke="#0ea5e9" stroke-width="2" filter="url(#shadow)" /><text x="7332.0" y="317.0" fill="#075985" font-family="Inter, Segoe UI, Arial, sans-serif" font-size="15" font-weight="700" text-anchor="middle">Student Portal</text><rect x="7017.0" y="411.0" width="88.0" height="34.0" rx="8" ry="8" fill="#ffffff" stroke="#cbd5e1" stroke-width="1" filter="url(#shadow)" /><text x="7061.0" y="427.0" fill="#1e293b" font-family="Inter, Segoe UI, Arial, sans-serif" font-size="12" font-weight="500" text-anchor="middle">Timetable</text><rect x="7123.0" y="411.0" width="100.0" height="34.0" rx="8" ry="8" fill="#ffffff" stroke="#cbd5e1" stroke-width="1" filter="url(#shadow)" /><text x="7173.0" y="427.0" fill="#1e293b" font-family="Inter, Segoe UI, Arial, sans-serif" font-size="12" font-weight="500" text-anchor="middle">Assignments</text><rect x="7241.0" y="411.0" width="88.0" height="34.0" rx="8" ry="8" fill="#ffffff" stroke="#cbd5e1" stroke-width="1" filter="url(#shadow)" /><text x="7285.0" y="427.0" fill="#1e293b" font-family="Inter, Segoe UI, Arial, sans-serif" font-size="12" font-weight="500" text-anchor="middle">Grades</text><rect x="7347.0" y="411.0" width="88.0" height="34.0" rx="8" ry="8" fill="#ffffff" stroke="#cbd5e1" stroke-width="1" filter="url(#shadow)" /><text x="7391.0" y="427.0" fill="#1e293b" font-family="Inter, Segoe UI, Arial, sans-serif" font-size="12" font-weight="500" text-anchor="middle">Library</text><rect x="7453.0" y="411.0" width="88.0" height="34.0" rx="8" ry="8" fill="#ffffff" stroke="#cbd5e1" stroke-width="1" filter="url(#shadow)" /><text x="7497.0" y="427.0" fill="#1e293b" font-family="Inter, Segoe UI, Arial, sans-serif" font-size="12" font-weight="500" text-anchor="middle">Events</text><rect x="7559.0" y="411.0" width="88.0" height="34.0" rx="8" ry="8" fill="#ffffff" stroke="#cbd5e1" stroke-width="1" filter="url(#shadow)" /><text x="7603.0" y="427.0" fill="#1e293b" font-family="Inter, Segoe UI, Arial, sans-serif" font-size="12" font-weight="500" text-anchor="middle">Messages</text><rect x="7939.0" y="301.0" width="102.0" height="38.0" rx="14" ry="14" fill="#f0fdfa" stroke="#14b8a6" stroke-width="2" filter="url(#shadow)" /><text x="7990.0" y="317.0" fill="#115e59" font-family="Inter, Segoe UI, Arial, sans-serif" font-size="15" font-weight="700" text-anchor="middle">Analytics</text><rect x="7665.0" y="411.0" width="149.0" height="34.0" rx="8" ry="8" fill="#ffffff" stroke="#cbd5e1" stroke-width="1" filter="url(#shadow)" /><text x="7739.5" y="427.0" fill="#1e293b" font-family="Inter, Segoe UI, Arial, sans-serif" font-size="12" font-weight="500" text-anchor="middle">Students Analytics</text><rect x="7832.0" y="411.0" width="163.0" height="34.0" rx="8" ry="8" fill="#ffffff" stroke="#cbd5e1" stroke-width="1" filter="url(#shadow)" /><text x="7913.5" y="427.0" fill="#1e293b" font-family="Inter, Segoe UI, Arial, sans-serif" font-size="12" font-weight="500" text-anchor="middle">Attendance Analytics</text><rect x="8013.0" y="411.0" width="142.0" height="34.0" rx="8" ry="8" fill="#ffffff" stroke="#cbd5e1" stroke-width="1" filter="url(#shadow)" /><text x="8084.0" y="427.0" fill="#1e293b" font-family="Inter, Segoe UI, Arial, sans-serif" font-size="12" font-weight="500" text-anchor="middle">Finance Analytics</text><rect x="8173.0" y="411.0" width="142.0" height="34.0" rx="8" ry="8" fill="#ffffff" stroke="#cbd5e1" stroke-width="1" filter="url(#shadow)" /><text x="8244.0" y="427.0" fill="#1e293b" font-family="Inter, Segoe UI, Arial, sans-serif" font-size="12" font-weight="500" text-anchor="middle">Branch Comparison</text><rect x="8458.0" y="301.0" width="137.0" height="38.0" rx="14" ry="14" fill="#fff7ed" stroke="#f97316" stroke-width="2" filter="url(#shadow)" /><text x="8526.5" y="317.0" fill="#9a3412" font-family="Inter, Segoe UI, Arial, sans-serif" font-size="15" font-weight="700" text-anchor="middle">Communication</text><rect x="8333.0" y="411.0" width="88.0" height="34.0" rx="8" ry="8" fill="#ffffff" stroke="#cbd5e1" stroke-width="1" filter="url(#shadow)" /><text x="8377.0" y="427.0" fill="#1e293b" font-family="Inter, Segoe UI, Arial, sans-serif" font-size="12" font-weight="500" text-anchor="middle">Messaging</text><rect x="8439.0" y="411.0" width="114.0" height="34.0" rx="8" ry="8" fill="#ffffff" stroke="#cbd5e1" stroke-width="1" filter="url(#shadow)" /><text x="8496.0" y="427.0" fill="#1e293b" font-family="Inter, Segoe UI, Arial, sans-serif" font-size="12" font-weight="500" text-anchor="middle">Notifications</text><rect x="8571.0" y="411.0" width="149.0" height="34.0" rx="8" ry="8" fill="#ffffff" stroke="#cbd5e1" stroke-width="1" filter="url(#shadow)" /><text x="8645.5" y="427.0" fill="#1e293b" font-family="Inter, Segoe UI, Arial, sans-serif" font-size="12" font-weight="500" text-anchor="middle">Outreach Campaigns</text><rect x="8955.5" y="301.0" width="180.0" height="38.0" rx="14" ry="14" fill="#faf5ff" stroke="#a855f7" stroke-width="2" filter="url(#shadow)" /><text x="9045.5" y="317.0" fill="#6b21a8" font-family="Inter, Segoe UI, Arial, sans-serif" font-size="15" font-weight="700" text-anchor="middle">Settings &amp; Onboarding</text><rect x="8738.0" y="411.0" width="114.0" height="34.0" rx="8" ry="8" fill="#ffffff" stroke="#cbd5e1" stroke-width="1" filter="url(#shadow)" /><text x="8795.0" y="427.0" fill="#1e293b" font-family="Inter, Segoe UI, Arial, sans-serif" font-size="12" font-weight="500" text-anchor="middle">User Settings</text><rect x="8870.0" y="411.0" width="149.0" height="34.0" rx="8" ry="8" fill="#ffffff" stroke="#cbd5e1" stroke-width="1" filter="url(#shadow)" /><text x="8944.5" y="427.0" fill="#1e293b" font-family="Inter, Segoe UI, Arial, sans-serif" font-size="12" font-weight="500" text-anchor="middle">School Setup Guide</text><rect x="9037.0" y="411.0" width="149.0" height="34.0" rx="8" ry="8" fill="#ffffff" stroke="#cbd5e1" stroke-width="1" filter="url(#shadow)" /><text x="9111.5" y="427.0" fill="#1e293b" font-family="Inter, Segoe UI, Arial, sans-serif" font-size="12" font-weight="500" text-anchor="middle">Profile Onboarding</text><rect x="9204.0" y="411.0" width="149.0" height="34.0" rx="8" ry="8" fill="#ffffff" stroke="#cbd5e1" stroke-width="1" filter="url(#shadow)" /><text x="9278.5" y="427.0" fill="#1e293b" font-family="Inter, Segoe UI, Arial, sans-serif" font-size="12" font-weight="500" text-anchor="middle">System Preferences</text><rect x="9809.0" y="301.0" width="145.0" height="38.0" rx="14" ry="14" fill="#f1f5f9" stroke="#475569" stroke-width="2" filter="url(#shadow)" /><text x="9881.5" y="317.0" fill="#334155" font-family="Inter, Segoe UI, Arial, sans-serif" font-size="15" font-weight="700" text-anchor="middle">Backend &amp; Data</text><rect x="9371.0" y="411.0" width="121.0" height="34.0" rx="8" ry="8" fill="#ffffff" stroke="#cbd5e1" stroke-width="1" filter="url(#shadow)" /><text x="9431.5" y="427.0" fill="#1e293b" font-family="Inter, Segoe UI, Arial, sans-serif" font-size="12" font-weight="500" text-anchor="middle">Server Actions</text><rect x="9510.0" y="411.0" width="93.0" height="34.0" rx="8" ry="8" fill="#ffffff" stroke="#cbd5e1" stroke-width="1" filter="url(#shadow)" /><text x="9556.5" y="427.0" fill="#1e293b" font-family="Inter, Segoe UI, Arial, sans-serif" font-size="12" font-weight="500" text-anchor="middle">API Routes</text><rect x="9621.0" y="411.0" width="121.0" height="34.0" rx="8" ry="8" fill="#ffffff" stroke="#cbd5e1" stroke-width="1" filter="url(#shadow)" /><text x="9681.5" y="427.0" fill="#1e293b" font-family="Inter, Segoe UI, Arial, sans-serif" font-size="12" font-weight="500" text-anchor="middle">Database Layer</text><rect x="9760.0" y="411.0" width="114.0" height="34.0" rx="8" ry="8" fill="#ffffff" stroke="#cbd5e1" stroke-width="1" filter="url(#shadow)" /><text x="9817.0" y="427.0" fill="#1e293b" font-family="Inter, Segoe UI, Arial, sans-serif" font-size="12" font-weight="500" text-anchor="middle">Auth Services</text><rect x="9892.0" y="411.0" width="156.0" height="34.0" rx="8" ry="8" fill="#ffffff" stroke="#cbd5e1" stroke-width="1" filter="url(#shadow)" /><text x="9970.0" y="427.0" fill="#1e293b" font-family="Inter, Segoe UI, Arial, sans-serif" font-size="12" font-weight="500" text-anchor="middle">Supabase Migrations</text><rect x="10066.0" y="411.0" width="88.0" height="34.0" rx="8" ry="8" fill="#ffffff" stroke="#cbd5e1" stroke-width="1" filter="url(#shadow)" /><text x="10110.0" y="427.0" fill="#1e293b" font-family="Inter, Segoe UI, Arial, sans-serif" font-size="12" font-weight="500" text-anchor="middle">Cron Jobs</text><rect x="10172.0" y="411.0" width="88.0" height="34.0" rx="8" ry="8" fill="#ffffff" stroke="#cbd5e1" stroke-width="1" filter="url(#shadow)" /><text x="10216.0" y="427.0" fill="#1e293b" font-family="Inter, Segoe UI, Arial, sans-serif" font-size="12" font-weight="500" text-anchor="middle">Webhooks</text><rect x="10278.0" y="411.0" width="114.0" height="34.0" rx="8" ry="8" fill="#ffffff" stroke="#cbd5e1" stroke-width="1" filter="url(#shadow)" /><text x="10335.0" y="427.0" fill="#1e293b" font-family="Inter, Segoe UI, Arial, sans-serif" font-size="12" font-weight="500" text-anchor="middle">PWA / Offline</text></svg>